<svg width="31" height="30" viewBox="0 0 31 30" fill="none" xmlns="http://www.w3.org/2000/svg">
<path d="M23.5921 5.75977C20.7404 3 16.0964 3 13.2477 5.75977L5.34632 13.4004C5.29485 13.4502 5.26761 13.5176 5.26761 13.5879C5.26761 13.6582 5.29485 13.7256 5.34632 13.7754L6.46341 14.8564C6.51447 14.9056 6.58359 14.9333 6.65564 14.9333C6.7277 14.9333 6.79682 14.9056 6.84788 14.8564L14.7492 7.21582C15.7301 6.2666 17.0349 5.74512 18.4214 5.74512C19.8079 5.74512 21.1127 6.2666 22.0906 7.21582C23.0714 8.16504 23.6103 9.42773 23.6103 10.7666C23.6103 12.1084 23.0714 13.3682 22.0906 14.3174L14.0378 22.1074L12.733 23.3701C11.513 24.5508 9.53011 24.5508 8.31009 23.3701C7.71975 22.7988 7.39583 22.04 7.39583 21.2314C7.39583 20.4229 7.71975 19.6641 8.31009 19.0928L16.2992 11.3643C16.5021 11.1709 16.7685 11.0625 17.0531 11.0625H17.0561C17.3407 11.0625 17.604 11.1709 17.8038 11.3643C18.0067 11.5605 18.1157 11.8184 18.1157 12.0937C18.1157 12.3662 18.0036 12.624 17.8038 12.8174L11.2739 19.1309C11.2224 19.1807 11.1951 19.248 11.1951 19.3184C11.1951 19.3887 11.2224 19.4561 11.2739 19.5059L12.3909 20.5869C12.442 20.6361 12.5111 20.6637 12.5832 20.6637C12.6552 20.6637 12.7244 20.6361 12.7754 20.5869L19.3024 14.2705C19.9048 13.6875 20.2348 12.9141 20.2348 12.0908C20.2348 11.2676 19.9018 10.4912 19.3024 9.91113C18.0581 8.70703 16.0359 8.70996 14.7916 9.91113L14.0166 10.6641L6.8055 17.6396C6.31607 18.1105 5.92811 18.6707 5.66411 19.2878C5.40012 19.9049 5.26534 20.5665 5.26761 21.2344C5.26761 22.5908 5.81556 23.8652 6.8055 24.8232C7.83177 25.8135 9.17591 26.3086 10.52 26.3086C11.8642 26.3086 13.2083 25.8135 14.2316 24.8232L23.5921 15.7705C24.9696 14.4346 25.7324 12.6562 25.7324 10.7666C25.7355 8.87402 24.9726 7.0957 23.5921 5.75977Z" fill="#333333"/>
</svg>
