<svg width="28" height="27" viewBox="0 0 28 27" fill="none" xmlns="http://www.w3.org/2000/svg">
<path d="M8.75 5.0625C8.75 3.71984 9.30312 2.43217 10.2877 1.48277C11.2723 0.533369 12.6076 0 14 0C15.3924 0 16.7277 0.533369 17.7123 1.48277C18.6969 2.43217 19.25 3.71984 19.25 5.0625V13.5C19.25 14.8427 18.6969 16.1303 17.7123 17.0797C16.7277 18.0291 15.3924 18.5625 14 18.5625C12.6076 18.5625 11.2723 18.0291 10.2877 17.0797C9.30312 16.1303 8.75 14.8427 8.75 13.5V5.0625Z" fill="white"/>
<path d="M6.125 10.9688C6.35706 10.9688 6.57962 11.0576 6.74372 11.2159C6.90781 11.3741 7 11.5887 7 11.8125V13.5C7 15.2902 7.7375 17.0071 9.05025 18.273C10.363 19.5388 12.1435 20.25 14 20.25C15.8565 20.25 17.637 19.5388 18.9497 18.273C20.2625 17.0071 21 15.2902 21 13.5V11.8125C21 11.5887 21.0922 11.3741 21.2563 11.2159C21.4204 11.0576 21.6429 10.9688 21.875 10.9688C22.1071 10.9688 22.3296 11.0576 22.4937 11.2159C22.6578 11.3741 22.75 11.5887 22.75 11.8125V13.5C22.75 15.5917 21.9443 17.6089 20.4892 19.1601C19.0341 20.7114 17.0333 21.6861 14.875 21.8953V25.3125H20.125C20.3571 25.3125 20.5796 25.4014 20.7437 25.5596C20.9078 25.7179 21 25.9325 21 26.1562C21 26.38 20.9078 26.5946 20.7437 26.7529C20.5796 26.9111 20.3571 27 20.125 27H7.875C7.64294 27 7.42038 26.9111 7.25628 26.7529C7.09219 26.5946 7 26.38 7 26.1562C7 25.9325 7.09219 25.7179 7.25628 25.5596C7.42038 25.4014 7.64294 25.3125 7.875 25.3125H13.125V21.8953C10.9667 21.6861 8.96591 20.7114 7.51079 19.1601C6.05567 17.6089 5.24997 15.5917 5.25 13.5V11.8125C5.25 11.5887 5.34219 11.3741 5.50628 11.2159C5.67038 11.0576 5.89294 10.9688 6.125 10.9688Z" fill="white"/>
</svg>
