<svg width="29" height="29" viewBox="0 0 29 29" fill="none" xmlns="http://www.w3.org/2000/svg">
<path d="M17.2188 23.5625C17.2188 24.2836 16.9323 24.9751 16.4224 25.4849C15.9126 25.9948 15.2211 26.2812 14.5 26.2812C13.7789 26.2812 13.0874 25.9948 12.5776 25.4849C12.0677 24.9751 11.7812 24.2836 11.7812 23.5625C11.7812 22.8414 12.0677 22.1499 12.5776 21.6401C13.0874 21.1302 13.7789 20.8438 14.5 20.8438C15.2211 20.8438 15.9126 21.1302 16.4224 21.6401C16.9323 22.1499 17.2188 22.8414 17.2188 23.5625ZM17.2188 14.5C17.2188 15.2211 16.9323 15.9126 16.4224 16.4224C15.9126 16.9323 15.2211 17.2188 14.5 17.2188C13.7789 17.2188 13.0874 16.9323 12.5776 16.4224C12.0677 15.9126 11.7812 15.2211 11.7812 14.5C11.7812 13.7789 12.0677 13.0874 12.5776 12.5776C13.0874 12.0677 13.7789 11.7812 14.5 11.7812C15.2211 11.7812 15.9126 12.0677 16.4224 12.5776C16.9323 13.0874 17.2188 13.7789 17.2188 14.5ZM17.2188 5.4375C17.2188 6.15856 16.9323 6.85008 16.4224 7.35995C15.9126 7.86981 15.2211 8.15625 14.5 8.15625C13.7789 8.15625 13.0874 7.86981 12.5776 7.35995C12.0677 6.85008 11.7812 6.15856 11.7812 5.4375C11.7812 4.71644 12.0677 4.02492 12.5776 3.51505C13.0874 3.00519 13.7789 2.71875 14.5 2.71875C15.2211 2.71875 15.9126 3.00519 16.4224 3.51505C16.9323 4.02492 17.2188 4.71644 17.2188 5.4375Z" fill="#9747FF"/>
</svg>
