<svg width="30" height="30" viewBox="0 0 30 30" fill="none" xmlns="http://www.w3.org/2000/svg">
<path d="M10.9275 10.8525C9.58626 11.9925 9.09501 14.0712 10.2525 15.7387C11.3402 17.3028 12.6982 18.6603 14.2625 19.7475C15.93 20.905 18.0088 20.4137 19.1488 19.0725L19.1613 19.0787C20.6171 19.7536 22.1626 20.2154 23.75 20.45V23.75H23.745C13.7775 23.7638 6.23876 16.1388 6.25001 6.255V6.25H9.55001V6.25125C9.78501 7.83875 10.2475 9.38375 10.9213 10.8387L10.9275 10.8513V10.8525ZM23.75 26.25H25C25.3315 26.25 25.6495 26.1183 25.8839 25.8839C26.1183 25.6495 26.25 25.3315 26.25 25V19.3725C26.2503 19.0726 26.1427 18.7827 25.947 18.5555C25.7513 18.3283 25.4804 18.1791 25.1838 18.135L24.1163 17.9775C22.7659 17.7771 21.4512 17.3839 20.2125 16.81L19.2713 16.3737C19.007 16.2513 18.7082 16.225 18.4265 16.2994C18.1449 16.3738 17.8981 16.5442 17.7288 16.7812L17.3025 17.3775C16.9288 17.9013 16.215 18.06 15.6888 17.6937C14.3693 16.7766 13.2239 15.6316 12.3063 14.3125C11.94 13.785 12.1 13.0713 12.6225 12.6988L13.2188 12.2738C13.4561 12.1043 13.6267 11.8573 13.7011 11.5754C13.7755 11.2935 13.749 10.9945 13.6263 10.73L13.1888 9.7875C12.6154 8.54868 12.2227 7.23405 12.0225 5.88375L11.8638 4.81625C11.8197 4.51964 11.6704 4.24876 11.4433 4.05303C11.2161 3.85729 10.9261 3.74974 10.6263 3.75H5.00001C4.66849 3.75 4.35055 3.8817 4.11613 4.11612C3.88171 4.35054 3.75001 4.66848 3.75001 5V6.25125C3.73751 17.51 12.3875 26.2663 23.7488 26.25H23.75Z" fill="#9747FF"/>
</svg>
