<svg width="31" height="31" viewBox="0 0 31 31" fill="none" xmlns="http://www.w3.org/2000/svg">
<path d="M11.625 11.625C11.3681 11.625 11.1217 11.7271 10.94 11.9087C10.7583 12.0904 10.6562 12.3368 10.6562 12.5938C10.6562 12.8507 10.5542 13.0971 10.3725 13.2788C10.1908 13.4604 9.94443 13.5625 9.6875 13.5625C9.43057 13.5625 9.18417 13.4604 9.00249 13.2788C8.82081 13.0971 8.71875 12.8507 8.71875 12.5938C8.71875 11.823 9.02494 11.0837 9.56997 10.5387C10.115 9.99369 10.8542 9.6875 11.625 9.6875C12.3958 9.6875 13.135 9.99369 13.68 10.5387C14.2251 11.0837 14.5312 11.823 14.5312 12.5938C14.5312 12.8507 14.4292 13.0971 14.2475 13.2788C14.0658 13.4604 13.8194 13.5625 13.5625 13.5625C13.3056 13.5625 13.0592 13.4604 12.8775 13.2788C12.6958 13.0971 12.5938 12.8507 12.5938 12.5938C12.5938 12.3368 12.4917 12.0904 12.31 11.9087C12.1283 11.7271 11.8819 11.625 11.625 11.625ZM19.375 11.625C19.1181 11.625 18.8717 11.7271 18.69 11.9087C18.5083 12.0904 18.4062 12.3368 18.4062 12.5938C18.4062 12.8507 18.3042 13.0971 18.1225 13.2788C17.9408 13.4604 17.6944 13.5625 17.4375 13.5625C17.1806 13.5625 16.9342 13.4604 16.7525 13.2788C16.5708 13.0971 16.4688 12.8507 16.4688 12.5938C16.4688 11.823 16.7749 11.0837 17.32 10.5387C17.865 9.99369 18.6042 9.6875 19.375 9.6875C20.1458 9.6875 20.885 9.99369 21.43 10.5387C21.9751 11.0837 22.2812 11.823 22.2812 12.5938C22.2812 12.8507 22.1792 13.0971 21.9975 13.2788C21.8158 13.4604 21.5694 13.5625 21.3125 13.5625C21.0556 13.5625 20.8092 13.4604 20.6275 13.2788C20.4458 13.0971 20.3438 12.8507 20.3438 12.5938C20.3438 12.3368 20.2417 12.0904 20.06 11.9087C19.8783 11.7271 19.6319 11.625 19.375 11.625ZM8.78656 15.5C8.6479 15.5 8.51085 15.5298 8.38469 15.5874C8.25853 15.6449 8.14619 15.7289 8.05527 15.8336C7.96435 15.9382 7.89696 16.0612 7.85767 16.1942C7.81838 16.3272 7.80809 16.4671 7.8275 16.6044C8.09073 18.4517 9.01167 20.1421 10.4211 21.365C11.8306 22.5878 13.634 23.2611 15.5 23.2611C17.366 23.2611 19.1694 22.5878 20.5789 21.365C21.9883 20.1421 22.9093 18.4517 23.1725 16.6044C23.1919 16.4669 23.1816 16.3269 23.1422 16.1938C23.1028 16.0606 23.0352 15.9376 22.9441 15.8328C22.853 15.7281 22.7404 15.6442 22.614 15.5868C22.4876 15.5293 22.3503 15.4997 22.2115 15.5H8.78656ZM15.5 21.3125C14.2976 21.3126 13.1248 20.94 12.1429 20.2461C11.1609 19.5521 10.4182 18.5709 10.0169 17.4375H20.9831C20.5818 18.5709 19.8391 19.5521 18.8571 20.2461C17.8752 20.94 16.7024 21.3126 15.5 21.3125ZM27.125 15.5C27.125 13.9734 26.8243 12.4617 26.2401 11.0513C25.6559 9.64089 24.7996 8.35936 23.7201 7.27988C22.6406 6.2004 21.3591 5.34411 19.9487 4.7599C18.5383 4.17569 17.0266 3.875 15.5 3.875C13.9734 3.875 12.4617 4.17569 11.0513 4.7599C9.64089 5.34411 8.35936 6.2004 7.27988 7.27988C6.2004 8.35936 5.34411 9.64089 4.7599 11.0513C4.17569 12.4617 3.875 13.9734 3.875 15.5C3.875 18.5831 5.09977 21.54 7.27988 23.7201C9.45999 25.9002 12.4169 27.125 15.5 27.125C18.5831 27.125 21.54 25.9002 23.7201 23.7201C25.9002 21.54 27.125 18.5831 27.125 15.5ZM5.8125 15.5C5.8125 12.9307 6.83314 10.4667 8.6499 8.6499C10.4667 6.83314 12.9307 5.8125 15.5 5.8125C18.0693 5.8125 20.5333 6.83314 22.3501 8.6499C24.1669 10.4667 25.1875 12.9307 25.1875 15.5C25.1875 18.0693 24.1669 20.5333 22.3501 22.3501C20.5333 24.1669 18.0693 25.1875 15.5 25.1875C12.9307 25.1875 10.4667 24.1669 8.6499 22.3501C6.83314 20.5333 5.8125 18.0693 5.8125 15.5Z" fill="#333333"/>
</svg>
