<svg width="27" height="28" viewBox="0 0 27 28" fill="none" xmlns="http://www.w3.org/2000/svg">
<path d="M15.6656 2.92133C16.1067 2.9213 16.5401 3.04077 16.9229 3.26792C17.3057 3.49506 17.6247 3.822 17.8481 4.21633L18.7639 5.8345H21.0938C22.0633 5.8345 22.9931 6.23382 23.6787 6.94464C24.3644 7.65546 24.7497 8.61959 24.75 9.625V20.7083C24.75 21.2063 24.6554 21.6993 24.4717 22.1593C24.2879 22.6194 24.0186 23.0374 23.6791 23.3894C23.3396 23.7415 22.9365 24.0208 22.4929 24.2114C22.0493 24.4019 21.5739 24.5 21.0938 24.5H5.90625C4.93655 24.5 4.00657 24.1005 3.32089 23.3894C2.63521 22.6784 2.25 21.7139 2.25 20.7083V9.625C2.25 8.61939 2.63521 7.65496 3.32089 6.94389C4.00657 6.23281 4.93655 5.83333 5.90625 5.83333H8.24625L9.23063 4.172C9.45696 3.78959 9.77404 3.47373 10.1516 3.25457C10.5292 3.03542 10.9546 2.92028 11.3873 2.92017H15.6656V2.92133ZM15.6656 4.67133H11.3873C11.2641 4.67144 11.1425 4.69948 11.031 4.75349C10.9194 4.80751 10.8206 4.88618 10.7415 4.984L10.6684 5.089L9.43875 7.16567C9.36335 7.29321 9.25768 7.39857 9.13182 7.47169C9.00597 7.54482 8.86414 7.58325 8.71988 7.58333H5.90738C5.64874 7.58318 5.39261 7.63588 5.15362 7.73841C4.91463 7.84095 4.69747 7.99131 4.51453 8.18091C4.3316 8.37051 4.18648 8.59564 4.08747 8.84342C3.98846 9.0912 3.9375 9.35679 3.9375 9.625V20.7083C3.9375 21.8353 4.8195 22.75 5.90625 22.75H21.0938C21.6159 22.75 22.1167 22.5349 22.4859 22.152C22.8551 21.7691 23.0625 21.2498 23.0625 20.7083V9.625C23.0625 9.08352 22.8551 8.56421 22.4859 8.18132C22.1167 7.79844 21.6159 7.58333 21.0938 7.58333H18.2813C18.1342 7.58341 17.9896 7.54362 17.8619 7.4679C17.7343 7.39218 17.6279 7.28317 17.5534 7.15167L16.3924 5.10183C16.318 4.9705 16.2118 4.8616 16.0843 4.78589C15.9568 4.71018 15.8125 4.67029 15.6656 4.67017V4.67133ZM13.5 9.33333C14.8427 9.33333 16.1303 9.88646 17.0797 10.871C18.0291 11.8556 18.5625 13.1909 18.5625 14.5833C18.5625 15.9757 18.0291 17.3111 17.0797 18.2956C16.1303 19.2802 14.8427 19.8333 13.5 19.8333C12.1573 19.8333 10.8697 19.2802 9.92027 18.2956C8.97087 17.3111 8.4375 15.9757 8.4375 14.5833C8.4375 13.1909 8.97087 11.8556 9.92027 10.871C10.8697 9.88646 12.1573 9.33333 13.5 9.33333ZM13.5 11.0833C13.0568 11.0833 12.6179 11.1739 12.2084 11.3498C11.799 11.5256 11.4269 11.7835 11.1135 12.1085C10.8001 12.4335 10.5515 12.8193 10.3819 13.2439C10.2123 13.6686 10.125 14.1237 10.125 14.5833C10.125 15.043 10.2123 15.4981 10.3819 15.9227C10.5515 16.3474 10.8001 16.7332 11.1135 17.0582C11.4269 17.3832 11.799 17.641 12.2084 17.8169C12.6179 17.9928 13.0568 18.0833 13.5 18.0833C14.3951 18.0833 15.2536 17.7146 15.8865 17.0582C16.5194 16.4018 16.875 15.5116 16.875 14.5833C16.875 13.6551 16.5194 12.7648 15.8865 12.1085C15.2536 11.4521 14.3951 11.0833 13.5 11.0833Z" fill="#333333"/>
</svg>
