<svg width="35" height="35" viewBox="0 0 35 35" fill="none" xmlns="http://www.w3.org/2000/svg">
<path d="M8.75 7.65625C7.58968 7.65625 6.47688 8.11719 5.65641 8.93766C4.83594 9.75813 4.375 10.8709 4.375 12.0312V22.9688C4.375 24.1291 4.83594 25.2419 5.65641 26.0623C6.47688 26.8828 7.58968 27.3438 8.75 27.3438H19.6875C20.8478 27.3438 21.9606 26.8828 22.7811 26.0623C23.6016 25.2419 24.0625 24.1291 24.0625 22.9688V21.875L28 24.8281C28.2437 25.0109 28.5336 25.1223 28.837 25.1496C29.1405 25.177 29.4456 25.1193 29.7181 24.983C29.9906 24.8468 30.2198 24.6373 30.38 24.3782C30.5402 24.119 30.625 23.8203 30.625 23.5156V11.4844C30.625 11.1797 30.5402 10.881 30.38 10.6218C30.2198 10.3627 29.9906 10.1532 29.7181 10.017C29.4456 9.8807 29.1405 9.82302 28.837 9.85038C28.5336 9.87774 28.2437 9.98906 28 10.1719L24.0625 13.125V12.0312C24.0625 10.8709 23.6016 9.75813 22.7811 8.93766C21.9606 8.11719 20.8478 7.65625 19.6875 7.65625H8.75ZM24.0625 15.8594L28.4375 12.5781V22.4219L24.0625 19.1406V15.8594ZM21.875 12.0312V22.9688C21.875 23.5489 21.6445 24.1053 21.2343 24.5155C20.8241 24.9258 20.2677 25.1562 19.6875 25.1562H8.75C8.16984 25.1562 7.61344 24.9258 7.2032 24.5155C6.79297 24.1053 6.5625 23.5489 6.5625 22.9688V12.0312C6.5625 11.4511 6.79297 10.8947 7.2032 10.4845C7.61344 10.0742 8.16984 9.84375 8.75 9.84375H19.6875C20.2677 9.84375 20.8241 10.0742 21.2343 10.4845C21.6445 10.8947 21.875 11.4511 21.875 12.0312Z" fill="#9747FF"/>
</svg>
