<svg width="21" height="21" viewBox="0 0 21 21" fill="none" xmlns="http://www.w3.org/2000/svg">
<path d="M10.5 1.96875C8.81268 1.96875 7.16325 2.4691 5.7603 3.40652C4.35734 4.34395 3.26387 5.67635 2.61816 7.23523C1.97245 8.79411 1.8035 10.5095 2.13268 12.1644C2.46186 13.8193 3.27438 15.3394 4.4675 16.5325C5.66062 17.7256 7.18074 18.5381 8.83564 18.8673C10.4905 19.1965 12.2059 19.0276 13.7648 18.3818C15.3237 17.7361 16.6561 16.6427 17.5935 15.2397C18.5309 13.8368 19.0313 12.1873 19.0313 10.5C19.0269 8.2387 18.1267 6.07127 16.5277 4.47229C14.9287 2.8733 12.7613 1.97309 10.5 1.96875ZM11.4844 14.4375C11.4844 14.6115 11.4152 14.7785 11.2922 14.9015C11.1691 15.0246 11.0022 15.0938 10.8281 15.0938C10.6541 15.0938 10.4872 15.0246 10.3641 14.9015C10.241 14.7785 10.1719 14.6115 10.1719 14.4375V8.11289L9.22032 8.75273C9.07455 8.84846 8.89673 8.88236 8.72597 8.84698C8.55521 8.8116 8.4055 8.70983 8.30977 8.56406C8.21404 8.4183 8.18014 8.24047 8.21553 8.06971C8.25091 7.89895 8.35268 7.74924 8.49844 7.65352L10.4672 6.34102C10.5668 6.27769 10.6812 6.24137 10.7992 6.23562C10.9171 6.22987 11.0345 6.25488 11.1398 6.3082C11.2448 6.36483 11.3323 6.44897 11.393 6.55158C11.4537 6.6542 11.4853 6.77141 11.4844 6.89062V14.4375Z" fill="#F24E1E"/>
</svg>
