<svg width="21" height="21" viewBox="0 0 21 21" fill="none" xmlns="http://www.w3.org/2000/svg">
<path d="M10.5 1.96875C8.81268 1.96875 7.16325 2.4691 5.7603 3.40652C4.35734 4.34395 3.26387 5.67635 2.61816 7.23523C1.97245 8.79411 1.8035 10.5095 2.13268 12.1644C2.46186 13.8193 3.27438 15.3394 4.4675 16.5325C5.66062 17.7256 7.18074 18.5381 8.83564 18.8673C10.4905 19.1965 12.2059 19.0276 13.7648 18.3818C15.3237 17.7361 16.6561 16.6427 17.5935 15.2397C18.5309 13.8368 19.0313 12.1873 19.0313 10.5C19.0269 8.2387 18.1267 6.07127 16.5277 4.47229C14.9287 2.8733 12.7613 1.97309 10.5 1.96875ZM10.1637 9.51562C10.6488 9.51682 11.1261 9.6375 11.5535 9.86701C11.9809 10.0965 12.3452 10.4278 12.6142 10.8315C12.8831 11.2353 13.0485 11.6991 13.0956 12.1819C13.1427 12.6647 13.0702 13.1517 12.8843 13.5998C12.6985 14.048 12.4052 14.4434 12.0302 14.7512C11.6553 15.059 11.2103 15.2698 10.7345 15.3647C10.2588 15.4597 9.76701 15.436 9.3026 15.2957C8.8382 15.1555 8.41551 14.903 8.07188 14.5605C8.00556 14.5014 7.95193 14.4294 7.91425 14.349C7.87658 14.2685 7.85564 14.1812 7.8527 14.0924C7.84976 14.0036 7.86489 13.9151 7.89717 13.8323C7.92944 13.7495 7.97819 13.6742 8.04046 13.6108C8.10274 13.5474 8.17723 13.4973 8.25943 13.4636C8.34163 13.4299 8.42983 13.4132 8.51867 13.4145C8.60752 13.4159 8.69516 13.4353 8.77629 13.4715C8.85741 13.5078 8.93033 13.5601 8.99063 13.6254C9.1445 13.7795 9.32739 13.9017 9.52873 13.9848C9.73007 14.0678 9.94587 14.1102 10.1637 14.1094C10.3802 14.11 10.5948 14.0675 10.7947 13.9844C10.9947 13.9013 11.1762 13.7793 11.3285 13.6254C11.4818 13.4743 11.6035 13.2942 11.6866 13.0956C11.7697 12.8971 11.8124 12.684 11.8124 12.4688C11.8124 12.2535 11.7697 12.0404 11.6866 11.8419C11.6035 11.6433 11.4818 11.4632 11.3285 11.3121C11.1762 11.1582 10.9947 11.0362 10.7947 10.9531C10.5948 10.87 10.3802 10.8275 10.1637 10.8281C9.94587 10.8273 9.73007 10.8697 9.52873 10.9527C9.32739 11.0358 9.1445 11.158 8.99063 11.3121C8.8919 11.409 8.76507 11.4723 8.62824 11.4928C8.49141 11.5134 8.35159 11.4901 8.22876 11.4264C8.10593 11.3628 8.00637 11.2619 7.94431 11.1382C7.88225 11.0145 7.86087 10.8744 7.88321 10.7379L8.52305 6.78398C8.54834 6.6304 8.6274 6.49081 8.74611 6.39013C8.86482 6.28946 9.01545 6.23425 9.1711 6.23438H12.4688C12.6428 6.23438 12.8097 6.30352 12.9328 6.42659C13.0559 6.54966 13.125 6.71658 13.125 6.89062C13.125 7.06467 13.0559 7.23159 12.9328 7.35466C12.8097 7.47773 12.6428 7.54688 12.4688 7.54688H9.72891L9.39258 9.61406C9.64438 9.5486 9.9035 9.51552 10.1637 9.51562Z" fill="#F24E1E"/>
</svg>
