<svg width="17" height="12" viewBox="0 0 17 12" fill="none" xmlns="http://www.w3.org/2000/svg">
<path d="M16.079 2.61172L9.07104 10.8717C8.98761 10.9697 8.89709 11.0391 8.7995 11.0799C8.7019 11.1213 8.59725 11.1422 8.48554 11.1426C8.37383 11.143 8.26903 11.1228 8.17114 11.0821C8.07325 11.0421 7.98224 10.9734 7.8981 10.8759L0.809947 2.66665C0.613638 2.43929 0.514869 2.15457 0.513638 1.81247C0.512407 1.47038 0.616079 1.17678 0.824652 0.931678C1.03323 0.686572 1.27715 0.563517 1.55642 0.562513C1.83569 0.561508 2.08049 0.682805 2.29082 0.926404L8.47455 8.08819L14.6066 0.882102C14.8013 0.653337 15.0416 0.53844 15.3276 0.537411C15.6141 0.536381 15.8625 0.657664 16.0729 0.901262C16.2832 1.14486 16.3889 1.42956 16.3901 1.75536C16.3913 2.08117 16.2876 2.36662 16.079 2.61172Z" fill="black"/>
</svg>
