<svg width="16" height="11" viewBox="0 0 16 11" fill="none" xmlns="http://www.w3.org/2000/svg">
<path d="M15.5719 2.28787L8.5639 10.5478C8.48047 10.6459 8.38995 10.7153 8.29235 10.756C8.19476 10.7974 8.09011 10.8183 7.9784 10.8187C7.86669 10.8191 7.76189 10.799 7.664 10.7583C7.56611 10.7182 7.4751 10.6495 7.39096 10.5521L0.302806 2.3428C0.106497 2.11544 0.0077274 1.83071 0.00649685 1.48862C0.0052663 1.14653 0.108938 0.85293 0.317511 0.607825C0.526084 0.36272 0.770005 0.239665 1.04927 0.23866C1.32854 0.237655 1.57334 0.358953 1.78368 0.602551L7.96741 7.76434L14.0995 0.55825C14.2941 0.329484 14.5344 0.214587 14.8204 0.213559C15.107 0.212528 15.3554 0.333811 15.5657 0.57741C15.776 0.821008 15.8818 1.10571 15.883 1.43151C15.8841 1.75731 15.7804 2.04277 15.5719 2.28787Z" fill="black"/>
</svg>
