<svg width="17" height="12" viewBox="0 0 17 12" fill="none" xmlns="http://www.w3.org/2000/svg">
<path d="M16.4904 2.61172L9.48241 10.8717C9.39898 10.9697 9.30847 11.0391 9.21087 11.0799C9.11328 11.1213 9.00862 11.1422 8.89692 11.1426C8.78521 11.143 8.68041 11.1228 8.58252 11.0821C8.48463 11.0421 8.39361 10.9734 8.30948 10.8759L1.22132 2.66665C1.02502 2.43929 0.926245 2.15457 0.925015 1.81247C0.923784 1.47038 1.02746 1.17678 1.23603 0.931678C1.4446 0.686572 1.68852 0.563517 1.96779 0.562513C2.24706 0.561508 2.49186 0.682805 2.70219 0.926404L8.88593 8.08819L15.018 0.882102C15.2126 0.653337 15.453 0.53844 15.7389 0.537411C16.0255 0.536381 16.2739 0.657664 16.4842 0.901262C16.6946 1.14486 16.8003 1.42956 16.8015 1.75536C16.8027 2.08117 16.699 2.36662 16.4904 2.61172Z" fill="black"/>
</svg>
