<svg width="17" height="22" viewBox="0 0 17 22" fill="none" xmlns="http://www.w3.org/2000/svg">
<path d="M0 22V7.33333H3.1875V5.2381C3.1875 3.78889 3.70565 2.5534 4.74194 1.53162C5.77752 0.51054 7.03021 0 8.5 0C9.96979 0 11.2228 0.51054 12.2591 1.53162C13.2947 2.5534 13.8125 3.78889 13.8125 5.2381V7.33333H17V22H0ZM5.3125 7.33333H11.6875V5.2381C11.6875 4.36508 11.3776 3.62302 10.7578 3.0119C10.138 2.40079 9.38542 2.09524 8.5 2.09524C7.61458 2.09524 6.86198 2.40079 6.24219 3.0119C5.6224 3.62302 5.3125 4.36508 5.3125 5.2381V7.33333ZM8.5 16.7619C9.08438 16.7619 9.58481 16.5569 10.0013 16.147C10.4171 15.7363 10.625 15.2429 10.625 14.6667C10.625 14.0905 10.4171 13.597 10.0013 13.1864C9.58481 12.7764 9.08438 12.5714 8.5 12.5714C7.91563 12.5714 7.41554 12.7764 6.99975 13.1864C6.58325 13.597 6.375 14.0905 6.375 14.6667C6.375 15.2429 6.58325 15.7363 6.99975 16.147C7.41554 16.5569 7.91563 16.7619 8.5 16.7619Z" fill="black"/>
</svg>
